<svg width="80" height="35" viewBox="0 0 80 35" fill="none" xmlns="http://www.w3.org/2000/svg">
<rect width="80" height="35" rx="8" fill="#EC6090"/>
<path d="M19.4082 22H13.9121C13.7715 22 13.6191 21.9844 13.4551 21.9531C13.2949 21.918 13.1348 21.8652 12.9746 21.7949C12.8184 21.7246 12.668 21.6348 12.5234 21.5254C12.3789 21.4121 12.25 21.2773 12.1367 21.1211C12.0273 20.9609 11.9395 20.7773 11.873 20.5703C11.8066 20.3594 11.7734 20.123 11.7734 19.8613V15.7363C11.7734 15.5957 11.7891 15.4453 11.8203 15.2852C11.8555 15.1211 11.9082 14.9609 11.9785 14.8047C12.0488 14.6445 12.1406 14.4922 12.2539 14.3477C12.3672 14.2031 12.502 14.0762 12.6582 13.9668C12.8184 13.8535 13.002 13.7637 13.209 13.6973C13.416 13.6309 13.6504 13.5977 13.9121 13.5977H19.4082V15.1211H13.9121C13.7129 15.1211 13.5605 15.1738 13.4551 15.2793C13.3496 15.3848 13.2969 15.541 13.2969 15.748V19.8613C13.2969 20.0566 13.3496 20.209 13.4551 20.3184C13.5645 20.4238 13.7168 20.4766 13.9121 20.4766H19.4082V22ZM27.5234 21.2324C27.5234 21.3418 27.5039 21.4434 27.4648 21.5371C27.4258 21.6309 27.3711 21.7129 27.3008 21.7832C27.2344 21.8496 27.1543 21.9023 27.0605 21.9414C26.9707 21.9805 26.873 22 26.7676 22H23.3223C23.1348 22 22.9336 21.9785 22.7188 21.9355C22.5078 21.8926 22.2988 21.8242 22.0918 21.7305C21.8848 21.6328 21.6836 21.5117 21.4883 21.3672C21.2969 21.2188 21.1289 21.041 20.9844 20.834C20.8398 20.623 20.7227 20.3809 20.6328 20.1074C20.5469 19.834 20.5039 19.5254 20.5039 19.1816V15.666H22.0273V19.1816C22.0273 19.3809 22.0605 19.5605 22.127 19.7207C22.1973 19.877 22.291 20.0117 22.4082 20.125C22.5254 20.2383 22.6621 20.3262 22.8184 20.3887C22.9785 20.4473 23.1504 20.4766 23.334 20.4766H26V15.666H27.5234V21.2324ZM34.6074 22H33.084V17.7988C33.084 17.5996 33.0312 17.4492 32.9258 17.3477C32.8203 17.2422 32.6641 17.1895 32.457 17.1895H30.4766V22H28.9531V16.4219C28.9531 16.3164 28.9727 16.2188 29.0117 16.1289C29.0508 16.0352 29.1055 15.9551 29.1758 15.8887C29.2461 15.8184 29.3281 15.7637 29.4219 15.7246C29.5156 15.6855 29.6152 15.666 29.7207 15.666H32.4688C32.6797 15.666 32.9062 15.7031 33.1484 15.7773C33.3906 15.8516 33.6211 15.9707 33.8398 16.1348V15.666H35.9023C36.0469 15.666 36.1992 15.6836 36.3594 15.7188C36.5195 15.75 36.6777 15.8008 36.834 15.8711C36.9941 15.9414 37.1465 16.0332 37.291 16.1465C37.4355 16.2559 37.5625 16.3906 37.6719 16.5508C37.7812 16.707 37.8691 16.8887 37.9355 17.0957C38.002 17.3027 38.0352 17.5371 38.0352 17.7988V22H36.5117V17.7988C36.5117 17.5996 36.4609 17.4492 36.3594 17.3477C36.2617 17.2422 36.1094 17.1895 35.9023 17.1895H34.5312C34.582 17.377 34.6074 17.5801 34.6074 17.7988V22ZM46.4258 19.8613C46.4258 20.123 46.3926 20.3594 46.3262 20.5703C46.2598 20.7773 46.1719 20.9609 46.0625 21.1211C45.9531 21.2773 45.8262 21.4121 45.6816 21.5254C45.5371 21.6348 45.3848 21.7246 45.2246 21.7949C45.0684 21.8652 44.9102 21.918 44.75 21.9531C44.5898 21.9844 44.4375 22 44.293 22H41.5449V20.4766H44.293C44.4961 20.4766 44.6484 20.4238 44.75 20.3184C44.8516 20.2129 44.9023 20.0605 44.9023 19.8613V17.8105C44.9023 17.5996 44.8496 17.4434 44.7441 17.3418C44.6426 17.2402 44.4922 17.1895 44.293 17.1895H41.5566C41.3496 17.1895 41.1934 17.2422 41.0879 17.3477C40.9824 17.4492 40.9297 17.5996 40.9297 17.7988V23.9805H39.4062V17.7988C39.4062 17.5371 39.4395 17.3027 39.5059 17.0957C39.5723 16.8887 39.6602 16.707 39.7695 16.5508C39.8828 16.3906 40.0117 16.2559 40.1562 16.1465C40.3008 16.0332 40.4512 15.9414 40.6074 15.8711C40.7676 15.8008 40.9277 15.75 41.0879 15.7188C41.252 15.6836 41.4043 15.666 41.5449 15.666H44.293C44.5547 15.666 44.7891 15.6992 44.9961 15.7656C45.2031 15.832 45.3848 15.9199 45.541 16.0293C45.7012 16.1387 45.8359 16.2656 45.9453 16.4102C46.0586 16.5547 46.1504 16.707 46.2207 16.8672C46.291 17.0234 46.3418 17.1816 46.373 17.3418C46.4082 17.502 46.4258 17.6543 46.4258 17.7988V19.8613ZM54.2656 19.9023C54.2656 20.1133 54.2285 20.3418 54.1543 20.5879C54.0801 20.8301 53.959 21.0566 53.791 21.2676C53.627 21.4746 53.4102 21.6484 53.1406 21.7891C52.875 21.9297 52.5508 22 52.168 22H49.4199C49.209 22 48.9805 21.9629 48.7344 21.8887C48.4922 21.8145 48.2656 21.6953 48.0547 21.5312C47.8477 21.3633 47.6738 21.1465 47.5332 20.8809C47.3926 20.6113 47.3223 20.2852 47.3223 19.9023C47.3223 19.6914 47.3594 19.4629 47.4336 19.2168C47.5078 18.9707 47.627 18.7441 47.791 18.5371C47.959 18.3262 48.1758 18.1504 48.4414 18.0098C48.7109 17.8691 49.0371 17.7988 49.4199 17.7988H52.168V19.252H49.4199C49.2129 19.252 49.0527 19.3164 48.9395 19.4453C48.8262 19.5703 48.7695 19.7266 48.7695 19.9141C48.7695 20.1133 48.834 20.2695 48.9629 20.3828C49.0957 20.4922 49.252 20.5469 49.4316 20.5469H52.168C52.375 20.5469 52.5352 20.4844 52.6484 20.3594C52.7617 20.2344 52.8184 20.0781 52.8184 19.8906V17.7637C52.8184 17.5645 52.7559 17.4062 52.6309 17.2891C52.5098 17.1719 52.3555 17.1133 52.168 17.1133H48.8223V15.666H52.168C52.3789 15.666 52.6055 15.7031 52.8477 15.7773C53.0938 15.8516 53.3203 15.9727 53.5273 16.1406C53.7383 16.3047 53.9141 16.5215 54.0547 16.791C54.1953 17.0566 54.2656 17.3809 54.2656 17.7637V19.9023ZM53.3164 12.9062C53.3086 13.0039 53.291 13.127 53.2637 13.2754C53.2402 13.4199 53.1953 13.5762 53.1289 13.7441C53.0625 13.9082 52.9727 14.0742 52.8594 14.2422C52.75 14.4062 52.6074 14.5547 52.4316 14.6875C52.2559 14.8203 52.0449 14.9297 51.7988 15.0156C51.5566 15.0977 51.2676 15.1387 50.9316 15.1387C50.5957 15.1387 50.3047 15.0977 50.0586 15.0156C49.8125 14.9297 49.6016 14.8203 49.4258 14.6875C49.2539 14.5547 49.1113 14.4062 48.998 14.2422C48.8848 14.0742 48.7949 13.9082 48.7285 13.7441C48.666 13.5762 48.6191 13.4199 48.5879 13.2754C48.5605 13.127 48.5449 13.0039 48.541 12.9062H49.6484C49.6719 12.9766 49.707 13.0605 49.7539 13.1582C49.8047 13.2559 49.877 13.3496 49.9707 13.4395C50.0684 13.5293 50.1934 13.6074 50.3457 13.6738C50.502 13.7363 50.6973 13.7676 50.9316 13.7676C51.1621 13.7676 51.3535 13.7363 51.5059 13.6738C51.6621 13.6074 51.7891 13.5293 51.8867 13.4395C51.9844 13.3496 52.0586 13.2559 52.1094 13.1582C52.1641 13.0605 52.2031 12.9766 52.2266 12.9062H53.3164ZM61.1094 17.1895H57.6816C57.4746 17.1895 57.3184 17.2422 57.2129 17.3477C57.1074 17.4492 57.0547 17.5996 57.0547 17.7988V22H55.5312V17.7988C55.5312 17.5371 55.5645 17.3027 55.6309 17.0957C55.6973 16.8887 55.7852 16.707 55.8945 16.5508C56.0078 16.3906 56.1367 16.2559 56.2812 16.1465C56.4258 16.0332 56.5762 15.9414 56.7324 15.8711C56.8926 15.8008 57.0527 15.75 57.2129 15.7188C57.377 15.6836 57.5293 15.666 57.6699 15.666H61.1094V17.1895ZM68.1641 19.9023C68.1641 20.1133 68.127 20.3418 68.0527 20.5879C67.9785 20.8301 67.8574 21.0566 67.6895 21.2676C67.5254 21.4746 67.3086 21.6484 67.0391 21.7891C66.7734 21.9297 66.4492 22 66.0664 22H63.3184C63.1074 22 62.8789 21.9629 62.6328 21.8887C62.3906 21.8145 62.1641 21.6953 61.9531 21.5312C61.7461 21.3633 61.5723 21.1465 61.4316 20.8809C61.291 20.6113 61.2207 20.2852 61.2207 19.9023C61.2207 19.6914 61.2578 19.4629 61.332 19.2168C61.4062 18.9707 61.5254 18.7441 61.6895 18.5371C61.8574 18.3262 62.0742 18.1504 62.3398 18.0098C62.6094 17.8691 62.9355 17.7988 63.3184 17.7988H66.0664V19.252H63.3184C63.1113 19.252 62.9512 19.3164 62.8379 19.4453C62.7246 19.5703 62.668 19.7266 62.668 19.9141C62.668 20.1133 62.7324 20.2695 62.8613 20.3828C62.9941 20.4922 63.1504 20.5469 63.3301 20.5469H66.0664C66.2734 20.5469 66.4336 20.4844 66.5469 20.3594C66.6602 20.2344 66.7168 20.0781 66.7168 19.8906V17.7637C66.7168 17.5645 66.6543 17.4062 66.5293 17.2891C66.4082 17.1719 66.2539 17.1133 66.0664 17.1133H62.7207V15.666H66.0664C66.2773 15.666 66.5039 15.7031 66.7461 15.7773C66.9922 15.8516 67.2188 15.9727 67.4258 16.1406C67.6367 16.3047 67.8125 16.5215 67.9531 16.791C68.0938 17.0566 68.1641 17.3809 68.1641 17.7637V19.9023ZM67.2148 12.9062C67.207 13.0039 67.1895 13.127 67.1621 13.2754C67.1387 13.4199 67.0938 13.5762 67.0273 13.7441C66.9609 13.9082 66.8711 14.0742 66.7578 14.2422C66.6484 14.4062 66.5059 14.5547 66.3301 14.6875C66.1543 14.8203 65.9434 14.9297 65.6973 15.0156C65.4551 15.0977 65.166 15.1387 64.8301 15.1387C64.4941 15.1387 64.2031 15.0977 63.957 15.0156C63.7109 14.9297 63.5 14.8203 63.3242 14.6875C63.1523 14.5547 63.0098 14.4062 62.8965 14.2422C62.7832 14.0742 62.6934 13.9082 62.627 13.7441C62.5645 13.5762 62.5176 13.4199 62.4863 13.2754C62.459 13.127 62.4434 13.0039 62.4395 12.9062H63.5469C63.5703 12.9766 63.6055 13.0605 63.6523 13.1582C63.7031 13.2559 63.7754 13.3496 63.8691 13.4395C63.9668 13.5293 64.0918 13.6074 64.2441 13.6738C64.4004 13.7363 64.5957 13.7676 64.8301 13.7676C65.0605 13.7676 65.252 13.7363 65.4043 13.6738C65.5605 13.6074 65.6875 13.5293 65.7852 13.4395C65.8828 13.3496 65.957 13.2559 66.0078 13.1582C66.0625 13.0605 66.1016 12.9766 66.125 12.9062H67.2148Z" fill="white"/>
</svg>
