<svg width="323" height="97" viewBox="0 0 323 97" fill="none" xmlns="http://www.w3.org/2000/svg">
<path d="M36.5 57.5H24" stroke="#EC6090" stroke-width="5" stroke-linecap="round"/>
<path d="M30 63.5L30 51" stroke="#EC6090" stroke-width="5" stroke-linecap="round"/>
<path d="M81 54.5C77.5 45 66 39 59.5 39H31C17 41 12 50 10 54.5C8 59 6.49999 79.5 5.99999 83.5C5.49999 87.5 9.49999 93 13.5 93C17.5 93 21.5 95 27 88.5L33 76.5H58L64 88.5C67.6 94.9 74.8333 94.1667 78 93C80.3333 92.3333 85 89.2 85 82C85 74.8 82.3333 60.6667 81 54.5Z" stroke="#EC6090" stroke-width="5"/>
<circle cx="61" cy="51" r="3" fill="#EC6090"/>
<circle cx="55" cy="57" r="3" fill="#EC6090"/>
<circle cx="61" cy="63" r="3" fill="#EC6090"/>
<circle cx="67" cy="57" r="3" fill="#EC6090"/>
<path d="M36 37.2855C33.908 32.325 28.6781 19.785 24.4941 9.30859C19.2642 -3.78697 -0.609663 5.73707 3.5743 17.6421L11.4192 48" stroke="#EC6090" stroke-width="5" stroke-linecap="round"/>
<path d="M55 37.2855C57.092 32.325 62.3219 19.785 66.5059 9.30859C71.7358 -3.78697 91.6097 5.73707 87.4257 17.6421L79.5808 48" stroke="#EC6090" stroke-width="5" stroke-linecap="round"/>
<path d="M147.805 37.6641L136.859 49.6172L149.188 63H140.797L132.688 54.1641L124.578 63H116.164L128.469 49.5703L117.57 37.6641H125.914L132.641 45L139.414 37.6641H147.805ZM186.078 59.9297C186.078 60.3672 186 60.7734 185.844 61.1484C185.688 61.5234 185.469 61.8516 185.188 62.1328C184.922 62.3984 184.602 62.6094 184.227 62.7656C183.852 62.9219 183.445 63 183.008 63H161.023C160.461 63 159.852 62.9375 159.195 62.8125C158.555 62.6719 157.914 62.4609 157.273 62.1797C156.648 61.8984 156.047 61.5391 155.469 61.1016C154.891 60.6484 154.375 60.1094 153.922 59.4844C153.484 58.8438 153.133 58.1094 152.867 57.2812C152.602 56.4375 152.469 55.4922 152.469 54.4453V37.9453C152.469 37.3828 152.531 36.7812 152.656 36.1406C152.797 35.4844 153.008 34.8438 153.289 34.2188C153.57 33.5781 153.938 32.9688 154.391 32.3906C154.844 31.8125 155.383 31.3047 156.008 30.8672C156.648 30.4141 157.383 30.0547 158.211 29.7891C159.039 29.5234 159.977 29.3906 161.023 29.3906H185.797V35.4844H161.023C160.227 35.4844 159.617 35.6953 159.195 36.1172C158.773 36.5391 158.562 37.1641 158.562 37.9922V54.4453C158.562 55.2266 158.773 55.8359 159.195 56.2734C159.633 56.6953 160.242 56.9062 161.023 56.9062H179.984V49.2656H163.766V43.125H183.008C183.445 43.125 183.852 43.2109 184.227 43.3828C184.602 43.5391 184.922 43.7578 185.188 44.0391C185.469 44.3203 185.688 44.6484 185.844 45.0234C186 45.3828 186.078 45.7734 186.078 46.1953V59.9297ZM217.906 54.6094C217.906 55.4531 217.758 56.3672 217.461 57.3516C217.164 58.3203 216.68 59.2266 216.008 60.0703C215.352 60.8984 214.484 61.5938 213.406 62.1562C212.344 62.7188 211.047 63 209.516 63H198.523C197.68 63 196.766 62.8516 195.781 62.5547C194.812 62.2578 193.906 61.7812 193.062 61.125C192.234 60.4531 191.539 59.5859 190.977 58.5234C190.414 57.4453 190.133 56.1406 190.133 54.6094C190.133 53.7656 190.281 52.8516 190.578 51.8672C190.875 50.8828 191.352 49.9766 192.008 49.1484C192.68 48.3047 193.547 47.6016 194.609 47.0391C195.688 46.4766 196.992 46.1953 198.523 46.1953H209.516V52.0078H198.523C197.695 52.0078 197.055 52.2656 196.602 52.7812C196.148 53.2812 195.922 53.9062 195.922 54.6562C195.922 55.4531 196.18 56.0781 196.695 56.5312C197.227 56.9688 197.852 57.1875 198.57 57.1875H209.516C210.344 57.1875 210.984 56.9375 211.438 56.4375C211.891 55.9375 212.117 55.3125 212.117 54.5625V46.0547C212.117 45.2578 211.867 44.625 211.367 44.1562C210.883 43.6875 210.266 43.4531 209.516 43.4531H196.133V37.6641H209.516C210.359 37.6641 211.266 37.8125 212.234 38.1094C213.219 38.4062 214.125 38.8906 214.953 39.5625C215.797 40.2188 216.5 41.0859 217.062 42.1641C217.625 43.2266 217.906 44.5234 217.906 46.0547V54.6094ZM245.727 63H239.633V46.1953C239.633 45.3984 239.422 44.7969 239 44.3906C238.578 43.9688 237.953 43.7578 237.125 43.7578H229.203V63H223.109V40.6875C223.109 40.2656 223.188 39.875 223.344 39.5156C223.5 39.1406 223.719 38.8203 224 38.5547C224.281 38.2734 224.609 38.0547 224.984 37.8984C225.359 37.7422 225.758 37.6641 226.18 37.6641H237.172C238.016 37.6641 238.922 37.8125 239.891 38.1094C240.859 38.4062 241.781 38.8828 242.656 39.5391V37.6641H250.906C251.484 37.6641 252.094 37.7344 252.734 37.875C253.375 38 254.008 38.2031 254.633 38.4844C255.273 38.7656 255.883 39.1328 256.461 39.5859C257.039 40.0234 257.547 40.5625 257.984 41.2031C258.422 41.8281 258.773 42.5547 259.039 43.3828C259.305 44.2109 259.438 45.1484 259.438 46.1953V63H253.344V46.1953C253.344 45.3984 253.141 44.7969 252.734 44.3906C252.344 43.9688 251.734 43.7578 250.906 43.7578H245.422C245.625 44.5078 245.727 45.3203 245.727 46.1953V63ZM292.32 46.0547C292.32 46.8984 292.172 47.8125 291.875 48.7969C291.578 49.7656 291.094 50.6719 290.422 51.5156C289.766 52.3438 288.898 53.0391 287.82 53.6016C286.758 54.1641 285.461 54.4453 283.93 54.4453H272.938V48.6562H283.93C284.758 48.6562 285.398 48.4062 285.852 47.9062C286.305 47.3906 286.531 46.7578 286.531 46.0078C286.531 45.2109 286.273 44.5859 285.758 44.1328C285.258 43.6797 284.648 43.4531 283.93 43.4531H272.938C272.109 43.4531 271.469 43.7109 271.016 44.2266C270.562 44.7266 270.336 45.3516 270.336 46.1016V54.6094C270.336 55.4219 270.586 56.0547 271.086 56.5078C271.602 56.9609 272.234 57.1875 272.984 57.1875H283.93V63H272.938C272.094 63 271.18 62.8516 270.195 62.5547C269.227 62.2578 268.32 61.7812 267.477 61.125C266.648 60.4531 265.953 59.5859 265.391 58.5234C264.828 57.4453 264.547 56.1406 264.547 54.6094V46.0547C264.547 45.2109 264.695 44.3047 264.992 43.3359C265.289 42.3516 265.766 41.4453 266.422 40.6172C267.094 39.7734 267.961 39.0703 269.023 38.5078C270.102 37.9453 271.406 37.6641 272.938 37.6641H283.93C284.773 37.6641 285.68 37.8125 286.648 38.1094C287.633 38.4062 288.539 38.8906 289.367 39.5625C290.211 40.2188 290.914 41.0859 291.477 42.1641C292.039 43.2266 292.32 44.5234 292.32 46.0547ZM320.914 54.4453C320.914 55.4922 320.781 56.4375 320.516 57.2812C320.25 58.1094 319.898 58.8438 319.461 59.4844C319.023 60.1094 318.516 60.6484 317.938 61.1016C317.359 61.5391 316.75 61.8984 316.109 62.1797C315.484 62.4609 314.844 62.6719 314.188 62.8125C313.547 62.9375 312.938 63 312.359 63H295.859V56.9062H312.312C313.141 56.9062 313.766 56.6953 314.188 56.2734C314.609 55.8516 314.82 55.2422 314.82 54.4453C314.742 52.8203 313.922 52.0078 312.359 52.0078H302.914C301.57 52.0078 300.43 51.7734 299.492 51.3047C298.555 50.8359 297.789 50.25 297.195 49.5469C296.617 48.8438 296.195 48.0859 295.93 47.2734C295.68 46.4609 295.555 45.7031 295.555 45C295.555 43.6406 295.797 42.5 296.281 41.5781C296.766 40.6406 297.375 39.8828 298.109 39.3047C298.844 38.7266 299.641 38.3125 300.5 38.0625C301.359 37.7969 302.164 37.6641 302.914 37.6641H317.891V43.7578H302.961C302.648 43.7578 302.398 43.7969 302.211 43.875C302.039 43.9375 301.906 44.0312 301.812 44.1562C301.734 44.2656 301.688 44.3906 301.672 44.5312C301.656 44.6562 301.648 44.7812 301.648 44.9062C301.664 45.1562 301.711 45.3516 301.789 45.4922C301.867 45.6328 301.961 45.7344 302.07 45.7969C302.195 45.8594 302.328 45.8984 302.469 45.9141C302.625 45.9141 302.773 45.9141 302.914 45.9141H312.359C313.922 45.9141 315.25 46.1953 316.344 46.7578C317.438 47.3203 318.32 48.0312 318.992 48.8906C319.664 49.7344 320.148 50.6562 320.445 51.6562C320.758 52.6562 320.914 53.5859 320.914 54.4453Z" fill="#EC6090"/>
</svg>
