<svg width="80" height="35" viewBox="0 0 80 35" fill="none" xmlns="http://www.w3.org/2000/svg">
<rect width="80" height="35" rx="8" fill="#EC6090"/>
<path d="M15.293 13.5977L11.3145 21.7012C11.252 21.8262 11.1582 21.9258 11.0332 22C10.9121 22.0781 10.7773 22.1172 10.6289 22.1172C10.4844 22.1172 10.3496 22.0781 10.2246 22C10.1035 21.9258 10.0098 21.8262 9.94336 21.7012L5.9707 13.5977H7.67578L10.6289 19.6504L13.5938 13.5977H15.293ZM22.377 17.7637C22.377 17.9746 22.3398 18.2031 22.2656 18.4492C22.1914 18.6914 22.0703 18.918 21.9023 19.1289C21.7383 19.3359 21.5215 19.5098 21.252 19.6504C20.9863 19.791 20.6621 19.8613 20.2793 19.8613H17.5312V18.4141H20.2793C20.4863 18.4141 20.6465 18.3516 20.7598 18.2266C20.873 18.0977 20.9297 17.9395 20.9297 17.752C20.9297 17.5527 20.8652 17.3965 20.7363 17.2832C20.6113 17.1699 20.459 17.1133 20.2793 17.1133H17.5312C17.3242 17.1133 17.1641 17.1777 17.0508 17.3066C16.9375 17.4316 16.8809 17.5879 16.8809 17.7754V19.9023C16.8809 20.1055 16.9434 20.2637 17.0684 20.377C17.1973 20.4902 17.3555 20.5469 17.543 20.5469H20.2793V22H17.5312C17.3203 22 17.0918 21.9629 16.8457 21.8887C16.6035 21.8145 16.377 21.6953 16.166 21.5312C15.959 21.3633 15.7852 21.1465 15.6445 20.8809C15.5039 20.6113 15.4336 20.2852 15.4336 19.9023V17.7637C15.4336 17.5527 15.4707 17.3262 15.5449 17.084C15.6191 16.8379 15.7383 16.6113 15.9023 16.4043C16.0703 16.1934 16.2871 16.0176 16.5527 15.877C16.8223 15.7363 17.1484 15.666 17.5312 15.666H20.2793C20.4902 15.666 20.7168 15.7031 20.959 15.7773C21.2051 15.8516 21.4316 15.9727 21.6387 16.1406C21.8496 16.3047 22.0254 16.5215 22.166 16.791C22.3066 17.0566 22.377 17.3809 22.377 17.7637ZM29.4023 16.1348C29.4648 16.2793 29.4805 16.4258 29.4492 16.5742C29.4219 16.7227 29.3555 16.8516 29.25 16.9609L25.7285 20.4766H29.3906V22H23.8945C23.7383 22 23.5957 21.957 23.4668 21.8711C23.3418 21.7812 23.248 21.668 23.1855 21.5312C23.127 21.3867 23.1113 21.2402 23.1387 21.0918C23.1699 20.9395 23.2422 20.8066 23.3555 20.6934L26.8594 17.1895H23.1973V15.666H28.7051C28.8574 15.666 28.9961 15.707 29.1211 15.7891C29.25 15.8711 29.3438 15.9863 29.4023 16.1348ZM32.168 14.3652H30.6445V12.9883H32.168V14.3652ZM32.168 22H30.6445V15.666H32.168V22ZM44.0156 19.9023C44.0156 20.1133 43.9785 20.3418 43.9043 20.5879C43.8301 20.8301 43.709 21.0566 43.541 21.2676C43.377 21.4746 43.1602 21.6484 42.8906 21.7891C42.625 21.9297 42.3008 22 41.918 22H39.1699C38.959 22 38.7305 21.9629 38.4844 21.8887C38.2422 21.8145 38.0156 21.6953 37.8047 21.5312C37.5977 21.3633 37.4238 21.1465 37.2832 20.8809C37.1426 20.6113 37.0723 20.2852 37.0723 19.9023C37.0723 19.6914 37.1094 19.4629 37.1836 19.2168C37.2578 18.9707 37.377 18.7441 37.541 18.5371C37.709 18.3262 37.9258 18.1504 38.1914 18.0098C38.4609 17.8691 38.7871 17.7988 39.1699 17.7988H41.918V19.252H39.1699C38.9629 19.252 38.8027 19.3164 38.6895 19.4453C38.5762 19.5703 38.5195 19.7266 38.5195 19.9141C38.5195 20.1133 38.584 20.2695 38.7129 20.3828C38.8457 20.4922 39.002 20.5469 39.1816 20.5469H41.918C42.125 20.5469 42.2852 20.4844 42.3984 20.3594C42.5117 20.2344 42.5684 20.0781 42.5684 19.8906V17.7637C42.5684 17.5645 42.5059 17.4062 42.3809 17.2891C42.2598 17.1719 42.1055 17.1133 41.918 17.1133H38.5723V15.666H41.918C42.1289 15.666 42.3555 15.7031 42.5977 15.7773C42.8438 15.8516 43.0703 15.9727 43.2773 16.1406C43.4883 16.3047 43.6641 16.5215 43.8047 16.791C43.9453 17.0566 44.0156 17.3809 44.0156 17.7637V19.9023ZM48.0996 22H47.4199C47.2012 22 46.9668 21.9629 46.7168 21.8887C46.4707 21.8145 46.2402 21.6934 46.0254 21.5254C45.8105 21.3535 45.6328 21.1328 45.4922 20.8633C45.3516 20.5898 45.2812 20.2559 45.2812 19.8613V12.9883H46.8047V19.8613C46.8047 20.0488 46.8633 20.1992 46.9805 20.3125C47.0977 20.4219 47.2441 20.4766 47.4199 20.4766H48.0996V22ZM54.6035 17.1895H51.9434V22H50.4023V17.1895H48.4219V15.666H50.4023V13.5977H51.9434V15.666H54.6035V17.1895ZM62.3965 17.7637C62.3965 17.9746 62.3594 18.2031 62.2852 18.4492C62.2109 18.6914 62.0898 18.918 61.9219 19.1289C61.7578 19.3359 61.541 19.5098 61.2715 19.6504C61.0059 19.791 60.6816 19.8613 60.2988 19.8613H57.5508V18.4141H60.2988C60.5059 18.4141 60.666 18.3516 60.7793 18.2266C60.8926 18.0977 60.9492 17.9395 60.9492 17.752C60.9492 17.5527 60.8848 17.3965 60.7559 17.2832C60.6309 17.1699 60.4785 17.1133 60.2988 17.1133H57.5508C57.3438 17.1133 57.1836 17.1777 57.0703 17.3066C56.957 17.4316 56.9004 17.5879 56.9004 17.7754V19.9023C56.9004 20.1055 56.9629 20.2637 57.0879 20.377C57.2168 20.4902 57.375 20.5469 57.5625 20.5469H60.2988V22H57.5508C57.3398 22 57.1113 21.9629 56.8652 21.8887C56.623 21.8145 56.3965 21.6953 56.1855 21.5312C55.9785 21.3633 55.8047 21.1465 55.6641 20.8809C55.5234 20.6113 55.4531 20.2852 55.4531 19.9023V17.7637C55.4531 17.5527 55.4902 17.3262 55.5645 17.084C55.6387 16.8379 55.7578 16.6113 55.9219 16.4043C56.0898 16.1934 56.3066 16.0176 56.5723 15.877C56.8418 15.7363 57.168 15.666 57.5508 15.666H60.2988C60.5098 15.666 60.7363 15.7031 60.9785 15.7773C61.2246 15.8516 61.4512 15.9727 61.6582 16.1406C61.8691 16.3047 62.0449 16.5215 62.1855 16.791C62.3262 17.0566 62.3965 17.3809 62.3965 17.7637ZM66.2051 22H65.5254C65.3066 22 65.0723 21.9629 64.8223 21.8887C64.5762 21.8145 64.3457 21.6934 64.1309 21.5254C63.916 21.3535 63.7383 21.1328 63.5977 20.8633C63.457 20.5898 63.3867 20.2559 63.3867 19.8613V12.9883H64.9102V19.8613C64.9102 20.0488 64.9688 20.1992 65.0859 20.3125C65.2031 20.4219 65.3496 20.4766 65.5254 20.4766H66.2051V22ZM73.998 17.7637C73.998 17.9746 73.9609 18.2031 73.8867 18.4492C73.8125 18.6914 73.6914 18.918 73.5234 19.1289C73.3594 19.3359 73.1426 19.5098 72.873 19.6504C72.6074 19.791 72.2832 19.8613 71.9004 19.8613H69.1523V18.4141H71.9004C72.1074 18.4141 72.2676 18.3516 72.3809 18.2266C72.4941 18.0977 72.5508 17.9395 72.5508 17.752C72.5508 17.5527 72.4863 17.3965 72.3574 17.2832C72.2324 17.1699 72.0801 17.1133 71.9004 17.1133H69.1523C68.9453 17.1133 68.7852 17.1777 68.6719 17.3066C68.5586 17.4316 68.502 17.5879 68.502 17.7754V19.9023C68.502 20.1055 68.5645 20.2637 68.6895 20.377C68.8184 20.4902 68.9766 20.5469 69.1641 20.5469H71.9004V22H69.1523C68.9414 22 68.7129 21.9629 68.4668 21.8887C68.2246 21.8145 67.998 21.6953 67.7871 21.5312C67.5801 21.3633 67.4062 21.1465 67.2656 20.8809C67.125 20.6113 67.0547 20.2852 67.0547 19.9023V17.7637C67.0547 17.5527 67.0918 17.3262 67.166 17.084C67.2402 16.8379 67.3594 16.6113 67.5234 16.4043C67.6914 16.1934 67.9082 16.0176 68.1738 15.877C68.4434 15.7363 68.7695 15.666 69.1523 15.666H71.9004C72.1113 15.666 72.3379 15.7031 72.5801 15.7773C72.8262 15.8516 73.0527 15.9727 73.2598 16.1406C73.4707 16.3047 73.6465 16.5215 73.7871 16.791C73.9277 17.0566 73.998 17.3809 73.998 17.7637Z" fill="#1F2122"/>
</svg>
